<svg width="24" height="24" viewBox="0 0 24 24" fill="none" xmlns="http://www.w3.org/2000/svg">
<g clip-path="url(#clip0_263_19221)">
<path d="M22.6663 14.0546L20.5729 5.6213C20.491 5.34559 20.322 5.10378 20.0913 4.93197C19.8606 4.76015 19.5806 4.66755 19.2929 4.66797H4.70628C4.41405 4.66775 4.12985 4.76354 3.89738 4.9406C3.66491 5.11766 3.49705 5.3662 3.41961 5.64797L1.33294 14.0546C1.32652 14.1078 1.32652 14.1615 1.33294 14.2146V19.3346C1.33294 19.6883 1.47342 20.0274 1.72347 20.2774C1.97352 20.5275 2.31265 20.668 2.66628 20.668H21.3329C21.6866 20.668 22.0257 20.5275 22.2758 20.2774C22.5258 20.0274 22.6663 19.6883 22.6663 19.3346V14.208C22.6722 14.157 22.6722 14.1056 22.6663 14.0546ZM2.66628 19.3346V14.2946L4.70628 6.0013H19.2863L21.3329 14.2946V19.3346H2.66628Z" fill="#6C757D"/>
<path d="M4 13.332H20V14.6654H4V13.332Z" fill="#6C757D"/>
<path d="M17.332 16H19.9987V17.3333H17.332V16Z" fill="#6C757D"/>
</g>
<defs>
<clipPath id="clip0_263_19221">
<rect width="24" height="24" fill="white"/>
</clipPath>
</defs>
</svg>
