<svg width="24" height="24" viewBox="0 0 24 24" fill="none" xmlns="http://www.w3.org/2000/svg">
<path d="M15.6001 10.7998C15.6001 11.7546 15.2208 12.6703 14.5457 13.3454C13.8706 14.0205 12.9549 14.3998 12.0001 14.3998C11.0454 14.3998 10.1297 14.0205 9.45455 13.3454C8.77942 12.6703 8.40013 11.7546 8.40013 10.7998C8.40013 9.84504 8.77942 8.92936 9.45455 8.25423C10.1297 7.5791 11.0454 7.19981 12.0001 7.19981C12.9549 7.19981 13.8706 7.5791 14.5457 8.25423C15.2208 8.92936 15.6001 9.84504 15.6001 10.7998ZM14.4001 10.7998C14.4001 10.1633 14.1473 9.55285 13.6972 9.10276C13.2471 8.65267 12.6367 8.39982 12.0001 8.39982C11.3636 8.39982 10.7532 8.65267 10.3031 9.10276C9.85299 9.55285 9.60013 10.1633 9.60013 10.7998C9.60013 11.4363 9.85299 12.0468 10.3031 12.4969C10.7532 12.947 11.3636 13.1998 12.0001 13.1998C12.6367 13.1998 13.2471 12.947 13.6972 12.4969C14.1473 12.0468 14.4001 11.4363 14.4001 10.7998ZM17.9401 16.7458C19.5156 15.1695 20.4007 13.0321 20.4007 10.8034C20.4007 8.57476 19.5156 6.43732 17.9401 4.86102C17.1603 4.08063 16.2343 3.46156 15.2151 3.03918C14.1958 2.61681 13.1034 2.39941 12.0001 2.39941C10.8969 2.39941 9.80441 2.61681 8.7852 3.03918C7.76599 3.46156 6.83999 4.08063 6.06013 4.86102C4.48464 6.43732 3.59961 8.57476 3.59961 10.8034C3.59961 13.0321 4.48464 15.1695 6.06013 16.7458L7.88533 18.5446L10.3369 20.9266L10.4965 21.0682C11.4265 21.8218 12.7885 21.7738 13.6645 20.9266L16.5865 18.0826L17.9401 16.7458ZM6.90613 5.70702C7.57498 5.03787 8.36911 4.50706 9.24315 4.1449C10.1172 3.78275 11.054 3.59635 12.0001 3.59635C12.9462 3.59635 13.8831 3.78275 14.7571 4.1449C15.6312 4.50706 16.4253 5.03787 17.0941 5.70702C18.4078 7.02156 19.1631 8.7926 19.2024 10.6506C19.2418 12.5086 18.5622 14.31 17.3053 15.679L17.0941 15.8998L15.5089 17.4646L12.8329 20.0674L12.7201 20.1634C12.5125 20.3196 12.2597 20.4039 11.9999 20.4037C11.7401 20.4035 11.4875 20.3187 11.2801 20.1622L11.1685 20.0662L7.59253 16.5802L6.90613 15.8998L6.69493 15.6802C5.43811 14.3112 4.75847 12.5098 4.79782 10.6518C4.83717 8.7938 5.59247 7.02156 6.90613 5.70702Z" fill="#CCCCCC"/>
</svg>
