<svg width="24" height="24" viewBox="0 0 24 24" fill="none" xmlns="http://www.w3.org/2000/svg">
<path d="M2.40039 8.10078C2.40039 7.22557 2.74807 6.3862 3.36694 5.76733C3.98581 5.14846 4.82518 4.80078 5.70039 4.80078H18.3004C19.1756 4.80078 20.015 5.14846 20.6338 5.76733C21.2527 6.3862 21.6004 7.22557 21.6004 8.10078V15.9008C21.6004 16.776 21.2527 17.6154 20.6338 18.2342C20.015 18.8531 19.1756 19.2008 18.3004 19.2008H5.70039C4.82518 19.2008 3.98581 18.8531 3.36694 18.2342C2.74807 17.6154 2.40039 16.776 2.40039 15.9008V8.10078ZM5.70039 6.00078C5.14344 6.00078 4.60929 6.22203 4.21547 6.61586C3.82164 7.00968 3.60039 7.54383 3.60039 8.10078V15.9008C3.60039 17.06 4.54119 18.0008 5.70039 18.0008H18.3004C18.8573 18.0008 19.3915 17.7795 19.7853 17.3857C20.1791 16.9919 20.4004 16.4577 20.4004 15.9008V8.10078C20.4004 7.54383 20.1791 7.00968 19.7853 6.61586C19.3915 6.22203 18.8573 6.00078 18.3004 6.00078H5.70039ZM13.2004 7.80078C13.2004 7.64165 13.2636 7.48904 13.3761 7.37652C13.4886 7.264 13.6413 7.20078 13.8004 7.20078H16.2004C16.3595 7.20078 16.5121 7.264 16.6247 7.37652C16.7372 7.48904 16.8004 7.64165 16.8004 7.80078V10.2008C16.8004 10.3599 16.7372 10.5125 16.6247 10.625C16.5121 10.7376 16.3595 10.8008 16.2004 10.8008C16.0413 10.8008 15.8886 10.7376 15.7761 10.625C15.6636 10.5125 15.6004 10.3599 15.6004 10.2008V9.24918L13.6252 11.2256C13.5125 11.3382 13.3597 11.4015 13.2004 11.4015C13.0411 11.4015 12.8883 11.3382 12.7756 11.2256C12.6629 11.1129 12.5996 10.9601 12.5996 10.8008C12.5996 10.6414 12.6629 10.4886 12.7756 10.376L14.752 8.40078H13.8004C13.6413 8.40078 13.4886 8.33757 13.3761 8.22504C13.2636 8.11252 13.2004 7.95991 13.2004 7.80078ZM10.3756 12.776C10.4883 12.6633 10.6411 12.6 10.8004 12.6C10.9597 12.6 11.1125 12.6633 11.2252 12.776C11.3379 12.8886 11.4011 13.0414 11.4011 13.2008C11.4011 13.3601 11.3379 13.5129 11.2252 13.6256L9.24879 15.6008H10.2004C10.3595 15.6008 10.5121 15.664 10.6247 15.7765C10.7372 15.889 10.8004 16.0417 10.8004 16.2008C10.8004 16.3599 10.7372 16.5125 10.6247 16.625C10.5121 16.7376 10.3595 16.8008 10.2004 16.8008H7.80039C7.64126 16.8008 7.48865 16.7376 7.37613 16.625C7.26361 16.5125 7.20039 16.3599 7.20039 16.2008V13.8008C7.20039 13.6417 7.26361 13.489 7.37613 13.3765C7.48865 13.264 7.64126 13.2008 7.80039 13.2008C7.95952 13.2008 8.11213 13.264 8.22465 13.3765C8.33718 13.489 8.40039 13.6417 8.40039 13.8008V14.7524L10.3756 12.776Z" fill="#6C757D"/>
</svg>
