<svg width="24" height="24" viewBox="0 0 24 24" fill="none" xmlns="http://www.w3.org/2000/svg">
<path d="M3 6.85714C3 5.83416 3.40638 4.85309 4.12973 4.12973C4.85309 3.40638 5.83416 3 6.85714 3H17.1429C18.1658 3 19.1469 3.40638 19.8703 4.12973C20.5936 4.85309 21 5.83416 21 6.85714V17.1429C21 18.1658 20.5936 19.1469 19.8703 19.8703C19.1469 20.5936 18.1658 21 17.1429 21H6.85714C5.83416 21 4.85309 20.5936 4.12973 19.8703C3.40638 19.1469 3 18.1658 3 17.1429V6.85714ZM6.85714 4.28571C6.17516 4.28571 5.5211 4.55663 5.03887 5.03887C4.55663 5.5211 4.28571 6.17516 4.28571 6.85714V17.1429C4.28571 17.8248 4.55663 18.4789 5.03887 18.9611C5.5211 19.4434 6.17516 19.7143 6.85714 19.7143H17.1429C17.8248 19.7143 18.4789 19.4434 18.9611 18.9611C19.4434 18.4789 19.7143 17.8248 19.7143 17.1429V6.85714C19.7143 6.17516 19.4434 5.5211 18.9611 5.03887C18.4789 4.55663 17.8248 4.28571 17.1429 4.28571H6.85714Z" fill="#777777"/>
</svg>
