<svg width="32" height="32" viewBox="0 0 32 32" fill="none" xmlns="http://www.w3.org/2000/svg">
<path d="M14.0026 6H7.33594C6.8055 6 6.2968 6.21071 5.92172 6.58579C5.54665 6.96086 5.33594 7.46957 5.33594 8V22H26.6693V15.3333" stroke="black" stroke-width="2" stroke-linecap="round" stroke-linejoin="round"/>
<path d="M2.66797 21.999H29.3346V23.3324C29.3346 24.3932 28.9132 25.4106 28.1631 26.1608C27.4129 26.9109 26.3955 27.3324 25.3346 27.3324H6.66797C5.6071 27.3324 4.58969 26.9109 3.83954 26.1608C3.0894 25.4106 2.66797 24.3932 2.66797 23.3324V21.999Z" stroke="black" stroke-width="2" stroke-linejoin="round"/>
<path d="M21.5359 4.66604C20.3213 4.66604 19.3359 5.62271 19.3359 6.80271C19.3359 8.93871 21.9359 10.8807 23.3359 11.3327C24.7359 10.8807 27.3359 8.93937 27.3359 6.80271C27.3359 5.62271 26.3513 4.66604 25.1359 4.66604C24.7855 4.66438 24.4397 4.7458 24.1268 4.90364C23.8139 5.06147 23.5429 5.29122 23.3359 5.57404C23.129 5.29122 22.858 5.06147 22.5451 4.90364C22.2322 4.7458 21.8864 4.66438 21.5359 4.66604Z" stroke="black" stroke-width="2" stroke-linecap="round" stroke-linejoin="round"/>
</svg>
