<svg width="20" height="20" viewBox="0 0 20 20" fill="none" xmlns="http://www.w3.org/2000/svg">
<path d="M16.875 3.75H3.12502C2.7935 3.75 2.47556 3.8817 2.24114 4.11612C2.00672 4.35054 1.87502 4.66848 1.87502 5V17.5C1.87361 17.7383 1.94096 17.9719 2.06901 18.1728C2.19705 18.3737 2.38034 18.5335 2.5969 18.6328C2.76238 18.7096 2.94257 18.7496 3.12502 18.75C3.41846 18.7493 3.70217 18.6447 3.9258 18.4547C3.92953 18.4523 3.93294 18.4494 3.93596 18.4461L6.44533 16.25H16.875C17.2065 16.25 17.5245 16.1183 17.7589 15.8839C17.9933 15.6495 18.125 15.3315 18.125 15V5C18.125 4.66848 17.9933 4.35054 17.7589 4.11612C17.5245 3.8817 17.2065 3.75 16.875 3.75ZM16.875 15H6.44533C6.15098 14.9999 5.86601 15.1036 5.64065 15.293L5.63127 15.3016L3.12502 17.5V5H16.875V15ZM9.06252 10C9.06252 9.81458 9.11751 9.63332 9.22052 9.47915C9.32353 9.32498 9.46995 9.20482 9.64126 9.13386C9.81256 9.06291 10.0011 9.04434 10.1829 9.08051C10.3648 9.11669 10.5318 9.20598 10.6629 9.33709C10.794 9.4682 10.8833 9.63525 10.9195 9.8171C10.9557 9.99896 10.9371 10.1875 10.8662 10.3588C10.7952 10.5301 10.675 10.6765 10.5209 10.7795C10.3667 10.8825 10.1854 10.9375 10 10.9375C9.75138 10.9375 9.51292 10.8387 9.33711 10.6629C9.16129 10.4871 9.06252 10.2486 9.06252 10ZM5.62502 10C5.62502 9.81458 5.68 9.63332 5.78302 9.47915C5.88603 9.32498 6.03245 9.20482 6.20376 9.13386C6.37506 9.06291 6.56356 9.04434 6.74542 9.08051C6.92728 9.11669 7.09432 9.20598 7.22543 9.33709C7.35655 9.4682 7.44583 9.63525 7.48201 9.8171C7.51818 9.99896 7.49962 10.1875 7.42866 10.3588C7.3577 10.5301 7.23754 10.6765 7.08337 10.7795C6.9292 10.8825 6.74794 10.9375 6.56252 10.9375C6.31388 10.9375 6.07542 10.8387 5.89961 10.6629C5.72379 10.4871 5.62502 10.2486 5.62502 10ZM12.5 10C12.5 9.81458 12.555 9.63332 12.658 9.47915C12.761 9.32498 12.9075 9.20482 13.0788 9.13386C13.2501 9.06291 13.4386 9.04434 13.6204 9.08051C13.8023 9.11669 13.9693 9.20598 14.1004 9.33709C14.2315 9.4682 14.3208 9.63525 14.357 9.8171C14.3932 9.99896 14.3746 10.1875 14.3037 10.3588C14.2327 10.5301 14.1125 10.6765 13.9584 10.7795C13.8042 10.8825 13.6229 10.9375 13.4375 10.9375C13.1889 10.9375 12.9504 10.8387 12.7746 10.6629C12.5988 10.4871 12.5 10.2486 12.5 10Z" fill="#81859C"/>
</svg>
