<svg width="24" height="24" viewBox="0 0 24 24" fill="none" xmlns="http://www.w3.org/2000/svg">
<path d="M9.01 13.9995H3C2.45 13.9995 2 14.4495 2 14.9995C2 15.5495 2.45 15.9995 3 15.9995H9.01V17.7895C9.01 18.2395 9.55 18.4595 9.86 18.1395L12.64 15.3495C12.83 15.1495 12.83 14.8395 12.64 14.6395L9.86 11.8495C9.55 11.5295 9.01 11.7595 9.01 12.1995V13.9995ZM14.99 11.7895V9.99954H21C21.55 9.99954 22 9.54954 22 8.99954C22 8.44954 21.55 7.99954 21 7.99954H14.99V6.20954C14.99 5.75954 14.45 5.53954 14.14 5.85954L11.36 8.64954C11.17 8.84954 11.17 9.15954 11.36 9.35954L14.14 12.1495C14.2105 12.2186 14.2999 12.2653 14.3969 12.2837C14.4938 12.3021 14.5941 12.2914 14.685 12.2529C14.7759 12.2144 14.8534 12.1498 14.9076 12.0674C14.9619 11.9849 14.9906 11.8883 14.99 11.7895Z" fill="#373F6B"/>
</svg>
