<svg width="41" height="40" viewBox="0 0 41 40" fill="none" xmlns="http://www.w3.org/2000/svg">
<path d="M0.5 20C0.5 8.95431 9.45431 0 20.5 0C31.5457 0 40.5 8.95431 40.5 20C40.5 31.0457 31.5457 40 20.5 40C9.45431 40 0.5 31.0457 0.5 20Z" fill="#FDAF48"/>
<path d="M17.9533 17.4533C18.6511 16.7556 19.5 16.4067 20.5 16.4067C21.5 16.4067 22.3489 16.7556 23.0467 17.4533C23.7444 18.1511 24.0933 19 24.0933 20C24.0933 21 23.7444 21.8489 23.0467 22.5467C22.3489 23.2444 21.5 23.5933 20.5 23.5933C19.5 23.5933 18.6511 23.2444 17.9533 22.5467C17.2556 21.8489 16.9067 21 16.9067 20C16.9067 19 17.2556 18.1511 17.9533 17.4533ZM18.8444 21.6556C19.3022 22.1148 19.8541 22.3444 20.5 22.3444C21.1459 22.3444 21.6978 22.1148 22.1556 21.6556C22.6148 21.1978 22.8444 20.6459 22.8444 20C22.8444 19.3541 22.6148 18.8022 22.1556 18.3444C21.6978 17.8852 21.1459 17.6556 20.5 17.6556C19.8541 17.6556 19.3022 17.8852 18.8444 18.3444C18.3852 18.8022 18.1556 19.3541 18.1556 20C18.1556 20.6459 18.3852 21.1978 18.8444 21.6556ZM24.8289 15.6711C24.9844 15.8281 25.0622 16.0215 25.0622 16.2511C25.0622 16.4793 24.9844 16.677 24.8289 16.8444C24.6719 17.0104 24.4793 17.0933 24.2511 17.0933C24.0215 17.0933 23.823 17.0104 23.6556 16.8444C23.4896 16.677 23.4067 16.4793 23.4067 16.2511C23.4067 16.0215 23.4896 15.8281 23.6556 15.6711C23.823 15.5156 24.0215 15.4378 24.2511 15.4378C24.4793 15.4378 24.6719 15.5156 24.8289 15.6711ZM27.4689 17.1244C27.4896 17.6874 27.5 18.6459 27.5 20C27.5 21.3541 27.4896 22.3126 27.4689 22.8756C27.4067 24.1467 27.0267 25.1311 26.3289 25.8289C25.6311 26.5267 24.6467 26.8963 23.3756 26.9378C22.8126 26.9793 21.8541 27 20.5 27C19.1459 27 18.1874 26.9793 17.6244 26.9378C16.3533 26.8756 15.3741 26.5007 14.6867 25.8133C14.417 25.563 14.1985 25.2711 14.0311 24.9378C13.8652 24.6044 13.7452 24.2815 13.6711 23.9689C13.5985 23.6563 13.5622 23.2919 13.5622 22.8756C13.5207 22.3126 13.5 21.3541 13.5 20C13.5 18.6459 13.5207 17.677 13.5622 17.0933C13.6244 15.843 13.9993 14.8741 14.6867 14.1867C15.3741 13.4785 16.3533 13.0933 17.6244 13.0311C18.1874 13.0104 19.1459 13 20.5 13C21.8541 13 22.8126 13.0104 23.3756 13.0311C24.6467 13.0933 25.6311 13.4733 26.3289 14.1711C27.0267 14.8689 27.4067 15.8533 27.4689 17.1244ZM25.9689 24.1244C26.0311 23.9585 26.083 23.7452 26.1244 23.4844C26.1659 23.2237 26.197 22.9111 26.2178 22.5467C26.24 22.1822 26.2511 21.8852 26.2511 21.6556C26.2511 21.4274 26.2511 21.1044 26.2511 20.6867C26.2511 20.2704 26.2511 20.0363 26.2511 19.9844C26.2511 19.9326 26.2511 19.7037 26.2511 19.2978C26.2511 18.8904 26.2511 18.5726 26.2511 18.3444C26.2511 18.1148 26.24 17.8178 26.2178 17.4533C26.197 17.0889 26.1659 16.7763 26.1244 16.5156C26.083 16.2548 26.0311 16.0415 25.9689 15.8756C25.7185 15.2296 25.2704 14.7815 24.6244 14.5311C24.4585 14.4689 24.2452 14.417 23.9844 14.3756C23.7237 14.3341 23.4111 14.303 23.0467 14.2822C22.6822 14.2615 22.3904 14.2511 22.1711 14.2511C21.9533 14.2511 21.6304 14.2511 21.2022 14.2511C20.7756 14.2511 20.5415 14.2511 20.5 14.2511C20.4585 14.2511 20.2296 14.2511 19.8133 14.2511C19.3956 14.2511 19.0726 14.2511 18.8444 14.2511C18.6148 14.2511 18.3178 14.2615 17.9533 14.2822C17.5889 14.303 17.2763 14.3341 17.0156 14.3756C16.7548 14.417 16.5415 14.4689 16.3756 14.5311C15.7296 14.7815 15.2815 15.2296 15.0311 15.8756C14.9689 16.0415 14.917 16.2548 14.8756 16.5156C14.8341 16.7763 14.803 17.0889 14.7822 17.4533C14.7615 17.8178 14.7511 18.1096 14.7511 18.3289C14.7511 18.5467 14.7511 18.8696 14.7511 19.2978C14.7511 19.7244 14.7511 19.9585 14.7511 20C14.7511 20.083 14.7511 20.2756 14.7511 20.5778C14.7511 20.88 14.7511 21.1304 14.7511 21.3289C14.7511 21.5259 14.7563 21.7807 14.7667 22.0933C14.777 22.4059 14.7926 22.6719 14.8133 22.8911C14.8341 23.1089 14.8652 23.3326 14.9067 23.5622C14.9481 23.7919 14.9896 23.9793 15.0311 24.1244C15.3022 24.7704 15.7504 25.2185 16.3756 25.4689C16.5415 25.5311 16.7548 25.583 17.0156 25.6244C17.2763 25.6659 17.5889 25.697 17.9533 25.7178C18.3178 25.74 18.6096 25.7511 18.8289 25.7511C19.0467 25.7511 19.3696 25.7511 19.7978 25.7511C20.2244 25.7511 20.4585 25.7511 20.5 25.7511C20.5622 25.7511 20.7963 25.7511 21.2022 25.7511C21.6096 25.7511 21.9274 25.7511 22.1556 25.7511C22.3852 25.7511 22.6822 25.74 23.0467 25.7178C23.4111 25.697 23.7237 25.6659 23.9844 25.6244C24.2452 25.583 24.4585 25.5311 24.6244 25.4689C25.2704 25.1978 25.7185 24.7496 25.9689 24.1244Z" fill="black"/>
</svg>
