<svg width="40" height="40" viewBox="0 0 40 40" fill="none" xmlns="http://www.w3.org/2000/svg">
<path d="M0 20C0 8.95431 8.95431 0 20 0C31.0457 0 40 8.95431 40 20C40 31.0457 31.0457 40 20 40C8.95431 40 0 31.0457 0 20Z" fill="#FDAF48"/>
<path d="M24.1261 14.6556H22.6261C22.2498 14.6556 21.9528 14.7185 21.735 14.8444C21.5157 14.9689 21.375 15.1252 21.3128 15.3133C21.2506 15.5 21.2194 15.7393 21.2194 16.0311V18H23.875L23.4994 20.8444H21.2194V28H18.2817V20.8444H15.875V18H18.2817V15.7511C18.2817 14.563 18.615 13.6407 19.2817 12.9844C19.9483 12.3281 20.8335 12 21.9372 12C22.8335 12 23.5631 12.0415 24.1261 12.1244V14.6556Z" fill="black"/>
</svg>
