<svg width="41" height="40" viewBox="0 0 41 40" fill="none" xmlns="http://www.w3.org/2000/svg">
<path d="M0.5 20C0.5 8.95431 9.45431 0 20.5 0C31.5457 0 40.5 8.95431 40.5 20C40.5 31.0457 31.5457 40 20.5 40C9.45431 40 0.5 31.0457 0.5 20Z" fill="#FDAF48"/>
<path d="M16.6244 17.6556V27H13.7178V17.6556H16.6244ZM15.1867 16.3756C14.7289 16.3756 14.3333 16.2089 14 15.8756C13.6667 15.5422 13.5 15.1459 13.5 14.6867C13.5 14.2289 13.6667 13.8333 14 13.5C14.3333 13.1667 14.7289 13 15.1867 13C15.4785 13 15.7548 13.0726 16.0156 13.2178C16.2763 13.3644 16.4844 13.5681 16.64 13.8289C16.797 14.0881 16.8756 14.3741 16.8756 14.6867C16.8756 14.8748 16.8444 15.0519 16.7822 15.2178C16.7185 15.3852 16.6348 15.5363 16.5311 15.6711C16.4274 15.8074 16.3074 15.9326 16.1711 16.0467C16.0363 16.1607 15.8852 16.2444 15.7178 16.2978C15.5519 16.3496 15.3748 16.3756 15.1867 16.3756ZM27.5 21.8756V27H24.5933V22.4378C24.5933 22.0837 24.583 21.797 24.5622 21.5778C24.5415 21.36 24.4896 21.1104 24.4067 20.8289C24.3237 20.5474 24.1726 20.3333 23.9533 20.1867C23.7341 20.0415 23.4474 19.9689 23.0933 19.9689C22.4059 19.9689 21.9422 20.1874 21.7022 20.6244C21.4637 21.063 21.3444 21.6467 21.3444 22.3756V27H18.4378V17.6556H21.2511V18.9378H21.2822C21.4896 18.5215 21.8333 18.1622 22.3133 17.86C22.7919 17.5578 23.3644 17.4067 24.0311 17.4067C24.7393 17.4067 25.3281 17.5156 25.7978 17.7333C26.2659 17.9526 26.62 18.2756 26.86 18.7022C27.0985 19.1304 27.2652 19.5941 27.36 20.0933C27.4533 20.5941 27.5 21.1881 27.5 21.8756Z" fill="black"/>
</svg>
