<svg width="40" height="40" viewBox="0 0 40 40" fill="none" xmlns="http://www.w3.org/2000/svg">
<path d="M0 20C0 8.95431 8.95431 0 20 0C31.0457 0 40 8.95431 40 20C40 31.0457 31.0457 40 20 40C8.95431 40 0 31.0457 0 20Z" fill="#FDAF48"/>
<path d="M27.0508 12.9101C26.134 11.984 25.042 11.2497 23.8384 10.7501C22.6349 10.2505 21.3439 9.99552 20.0408 10.0001C14.5808 10.0001 10.1308 14.4501 10.1308 19.9101C10.1308 21.6601 10.5908 23.3601 11.4508 24.8601L10.0508 30.0001L15.3008 28.6201C16.7508 29.4101 18.3808 29.8301 20.0408 29.8301C25.5008 29.8301 29.9508 25.3801 29.9508 19.9201C29.9508 17.2701 28.9208 14.7801 27.0508 12.9101ZM20.0408 28.1501C18.5608 28.1501 17.1108 27.7501 15.8408 27.0001L15.5408 26.8201L12.4208 27.6401L13.2508 24.6001L13.0508 24.2901C12.2285 22.977 11.7919 21.4593 11.7908 19.9101C11.7908 15.3701 15.4908 11.6701 20.0308 11.6701C22.2308 11.6701 24.3008 12.5301 25.8508 14.0901C26.6183 14.854 27.2265 15.7627 27.6402 16.7635C28.0539 17.7642 28.2648 18.8372 28.2608 19.9201C28.2808 24.4601 24.5808 28.1501 20.0408 28.1501ZM24.5608 21.9901C24.3108 21.8701 23.0908 21.2701 22.8708 21.1801C22.6408 21.1001 22.4808 21.0601 22.3108 21.3001C22.1408 21.5501 21.6708 22.1101 21.5308 22.2701C21.3908 22.4401 21.2408 22.4601 20.9908 22.3301C20.7408 22.2101 19.9408 21.9401 19.0008 21.1001C18.2608 20.4401 17.7708 19.6301 17.6208 19.3801C17.4808 19.1301 17.6008 19.0001 17.7308 18.8701C17.8408 18.7601 17.9808 18.5801 18.1008 18.4401C18.2208 18.3001 18.2708 18.1901 18.3508 18.0301C18.4308 17.8601 18.3908 17.7201 18.3308 17.6001C18.2708 17.4801 17.7708 16.2601 17.5708 15.7601C17.3708 15.2801 17.1608 15.3401 17.0108 15.3301H16.5308C16.3608 15.3301 16.1008 15.3901 15.8708 15.6401C15.6508 15.8901 15.0108 16.4901 15.0108 17.7101C15.0108 18.9301 15.9008 20.1101 16.0208 20.2701C16.1408 20.4401 17.7708 22.9401 20.2508 24.0101C20.8408 24.2701 21.3008 24.4201 21.6608 24.5301C22.2508 24.7201 22.7908 24.6901 23.2208 24.6301C23.7008 24.5601 24.6908 24.0301 24.8908 23.4501C25.1008 22.8701 25.1008 22.3801 25.0308 22.2701C24.9608 22.1601 24.8108 22.1101 24.5608 21.9901Z" fill="black"/>
</svg>
