<svg width="89" height="22" viewBox="0 0 89 22" fill="none" xmlns="http://www.w3.org/2000/svg">
<path d="M23.8145 8.20948V6.83203H30.3037V8.20948H27.8847V14.7326H26.2335V8.20948H23.8145Z" fill="#202020"/>
<path d="M34.0438 14.8499C33.4377 14.8499 32.9148 14.7257 32.4744 14.4774C32.0341 14.229 31.6954 13.8775 31.4583 13.4217C31.2226 12.9644 31.1055 12.4239 31.1055 11.7987C31.1055 11.189 31.2226 10.6548 31.4583 10.1954C31.6954 9.73462 32.0292 9.37544 32.4603 9.11717C32.8908 8.8596 33.3974 8.73047 33.9789 8.73047C34.4997 8.73047 34.9704 8.84196 35.3902 9.06354C35.8115 9.2837 36.1453 9.61819 36.3923 10.0656C36.6407 10.5116 36.7648 11.0697 36.7648 11.7394V12.191H32.7285V12.1967C32.7285 12.6391 32.8484 12.987 33.0898 13.241C33.3325 13.4951 33.66 13.6221 34.0721 13.6221C34.3466 13.6221 34.5837 13.5649 34.7834 13.4499C34.9845 13.3335 35.1263 13.162 35.2096 12.9362L36.7282 13.0378C36.6131 13.5875 36.3203 14.0271 35.8503 14.356C35.3796 14.6855 34.7777 14.8499 34.0438 14.8499ZM32.7285 11.172H35.218C35.2138 10.8206 35.1002 10.5306 34.8765 10.3027C34.6521 10.0733 34.3614 9.95831 34.0043 9.95831C33.6388 9.95831 33.3396 10.0769 33.1067 10.314C32.8731 10.5497 32.7468 10.8354 32.7285 11.172Z" fill="#202020"/>
<path d="M42.7659 10.4974L41.2614 10.5906C41.2198 10.4008 41.1154 10.2378 40.9481 10.1023C40.7823 9.96537 40.5565 9.89622 40.2707 9.89622C40.0167 9.89622 39.8007 9.94985 39.6243 10.0571C39.4472 10.163 39.3604 10.3048 39.3646 10.4833C39.3604 10.6245 39.4162 10.7444 39.5312 10.8418C39.6455 10.9399 39.8403 11.0182 40.1155 11.0761L41.1881 11.2934C42.3284 11.527 42.8993 12.0612 42.9014 12.8967C42.9014 13.2862 42.7871 13.6277 42.5599 13.9213C42.3319 14.2134 42.0193 14.4407 41.6227 14.6044C41.2276 14.7681 40.7738 14.8499 40.2622 14.8499C39.4775 14.8499 38.8516 14.6862 38.3852 14.3588C37.9202 14.03 37.6492 13.5826 37.5723 13.018L39.1896 12.9334C39.2404 13.1747 39.359 13.3568 39.5453 13.481C39.733 13.6037 39.9729 13.6644 40.2651 13.6644C40.5544 13.6644 40.7872 13.608 40.9622 13.4951C41.1387 13.3822 41.2283 13.2382 41.2304 13.0632C41.2226 12.7697 40.9693 12.5735 40.4711 12.4733L39.4437 12.2701C38.2977 12.0407 37.7261 11.4762 37.7303 10.5765C37.7282 10.0049 37.9568 9.55397 38.4162 9.22443C38.8749 8.89559 39.4839 8.73047 40.2425 8.73047C40.9912 8.73047 41.5811 8.88854 42.0123 9.20467C42.4427 9.52081 42.6939 9.95196 42.7659 10.4974Z" fill="#202020"/>
<path d="M47.0912 8.81041V10.0439H45.9763V12.9145C45.9763 13.1403 46.0271 13.2942 46.1287 13.3746C46.2318 13.4536 46.3665 13.4932 46.5324 13.4932C46.6093 13.4932 46.6862 13.4868 46.7638 13.4734C46.8407 13.4586 46.9 13.4473 46.9416 13.4395L47.1985 14.6617C47.1174 14.6885 47.0016 14.7182 46.8513 14.7521C46.7024 14.7873 46.5218 14.8092 46.3094 14.817C45.711 14.841 45.2311 14.7118 44.8698 14.4274C44.5085 14.1438 44.3293 13.7105 44.3335 13.129V10.0439H43.5234V8.81041H44.3335V7.39062H45.9763V8.81041H47.0912Z" fill="#202020"/>
<path d="M48.1568 14.735V8.81028H49.8024V14.735H48.1568ZM48.9019 8.04534C48.6606 8.04534 48.4531 7.96349 48.2781 7.79977C48.1031 7.63606 48.0156 7.44059 48.0156 7.21267C48.0156 6.98333 48.1031 6.78786 48.2781 6.62556C48.4531 6.46396 48.6606 6.38281 48.9019 6.38281C49.1461 6.38281 49.3564 6.46396 49.5314 6.62556C49.7064 6.78786 49.7939 6.98333 49.7939 7.21267C49.7939 7.44059 49.7064 7.63606 49.5314 7.79977C49.3564 7.96349 49.1461 8.04534 48.9019 8.04534Z" fill="#202020"/>
<path d="M51.1113 14.7342V8.8095H52.6779V9.85388H52.7485C52.8727 9.50387 53.0787 9.22937 53.3666 9.02967C53.6559 8.83067 54.0003 8.73047 54.3997 8.73047C54.8062 8.73047 55.1512 8.83208 55.4356 9.03531C55.7214 9.23713 55.9126 9.50952 56.0086 9.85388H56.0707C56.1907 9.51516 56.4101 9.24348 56.7284 9.03814C57.0459 8.83349 57.4227 8.73047 57.8574 8.73047C58.4085 8.73047 58.8573 8.90688 59.2038 9.2583C59.5496 9.60831 59.7232 10.1051 59.7232 10.7487V14.7342H58.0832V11.0733C58.0832 10.7444 57.9957 10.4974 57.8207 10.3337C57.6457 10.1686 57.427 10.0853 57.1659 10.0853C56.8667 10.0853 56.6331 10.1806 56.4659 10.3704C56.3 10.5609 56.2175 10.8093 56.2175 11.1156V14.7342H54.6227V11.0394C54.6227 10.7479 54.5394 10.5165 54.3743 10.345C54.2085 10.1721 53.9904 10.0853 53.7194 10.0853C53.4464 10.0853 53.2177 10.1855 53.0335 10.3845C52.8487 10.5842 52.7569 10.8489 52.7569 11.1777V14.7342H51.1113Z" fill="#202020"/>
<path d="M63.697 14.8499C63.0965 14.8499 62.5779 14.7222 62.1418 14.4661C61.7071 14.2106 61.3712 13.8528 61.1341 13.3935C60.8984 12.9348 60.7812 12.4013 60.7812 11.793C60.7812 11.1819 60.8984 10.6463 61.1341 10.1869C61.3712 9.72827 61.7071 9.3705 62.1418 9.11435C62.5779 8.8589 63.0965 8.73047 63.697 8.73047C64.2954 8.73047 64.8127 8.8589 65.2495 9.11435C65.6856 9.3705 66.0215 9.72827 66.2572 10.1869C66.4943 10.6463 66.6128 11.1819 66.6128 11.793C66.6128 12.4013 66.4943 12.9348 66.2572 13.3935C66.0215 13.8528 65.6856 14.2106 65.2495 14.4661C64.8127 14.7222 64.2954 14.8499 63.697 14.8499ZM63.7055 13.5769C64.112 13.5769 64.4196 13.4076 64.6285 13.0689C64.8374 12.7287 64.9418 12.2997 64.9418 11.7817C64.9418 11.2666 64.8374 10.8383 64.6285 10.4974C64.4196 10.1552 64.112 9.98372 63.7055 9.98372C63.2913 9.98372 62.978 10.1552 62.7656 10.4974C62.5546 10.8383 62.4494 11.2666 62.4494 11.7817C62.4494 12.2997 62.5546 12.7287 62.7656 13.0689C62.978 13.4076 63.2913 13.5769 63.7055 13.5769Z" fill="#202020"/>
<path d="M69.3311 11.3075V14.7342H67.6855V8.8095H69.2521V9.85388H69.3227C69.456 9.50952 69.6762 9.23713 69.9832 9.03531C70.2915 8.83208 70.6648 8.73047 71.1038 8.73047C71.7205 8.73047 72.2159 8.93017 72.5885 9.32887C72.9625 9.72615 73.1502 10.2702 73.1502 10.9603V14.7342H71.5074V11.2539C71.5088 10.8912 71.4157 10.6075 71.228 10.4043C71.0395 10.1996 70.7806 10.0966 70.4517 10.0966C70.1201 10.0966 69.8512 10.2032 69.6445 10.4156C69.437 10.6287 69.3326 10.9258 69.3311 11.3075Z" fill="#202020"/>
<path d="M74.438 14.735V8.81028H76.0836V14.735H74.438ZM75.1832 8.04534C74.9418 8.04534 74.7344 7.96349 74.5594 7.79977C74.3844 7.63606 74.2969 7.44059 74.2969 7.21267C74.2969 6.98333 74.3844 6.78786 74.5594 6.62556C74.7344 6.46396 74.9418 6.38281 75.1832 6.38281C75.4273 6.38281 75.6376 6.46396 75.8126 6.62556C75.9876 6.78786 76.0751 6.98333 76.0751 7.21267C76.0751 7.44059 75.9876 7.63606 75.8126 7.79977C75.6376 7.96349 75.4273 8.04534 75.1832 8.04534Z" fill="#202020"/>
<path d="M79.0846 14.8471C78.5179 14.8471 78.0487 14.6996 77.6761 14.404C77.3035 14.1069 77.1172 13.6658 77.1172 13.0801C77.1172 12.6384 77.2202 12.2912 77.4277 12.0386C77.6366 11.7867 77.9103 11.6025 78.2491 11.4854C78.5878 11.3668 78.9526 11.2899 79.3442 11.2539C79.858 11.2031 80.2249 11.1495 80.4451 11.093C80.6666 11.0366 80.7781 10.9124 80.7781 10.7204V10.6978C80.7781 10.4537 80.7005 10.2646 80.5467 10.1305C80.3943 9.99713 80.1776 9.93009 79.8975 9.93009C79.6018 9.93009 79.3668 9.99501 79.1918 10.1248C79.0168 10.2533 78.9011 10.4156 78.8446 10.6132L77.3261 10.489C77.439 9.94914 77.7191 9.52081 78.1672 9.20467C78.6167 8.88854 79.1961 8.73047 79.9059 8.73047C80.3463 8.73047 80.757 8.80033 81.1394 8.93934C81.5233 9.07906 81.8324 9.29641 82.0681 9.59137C82.3031 9.88493 82.4209 10.2674 82.4209 10.7374V14.7342H80.8628V13.9128H80.8177C80.6723 14.188 80.4564 14.4124 80.1685 14.5874C79.882 14.7603 79.5207 14.8471 79.0846 14.8471ZM79.5559 13.7124C79.9151 13.7124 80.2108 13.608 80.4423 13.3991C80.6737 13.1888 80.7894 12.9277 80.7894 12.6172V11.9878C80.7252 12.0315 80.6257 12.0696 80.4902 12.1035C80.3547 12.1374 80.2108 12.167 80.0584 12.191C79.9059 12.2157 79.7691 12.2362 79.6491 12.2531C79.3612 12.2947 79.1283 12.3759 78.9519 12.4959C78.7748 12.6165 78.6866 12.7922 78.6866 13.0237C78.6866 13.2516 78.7684 13.4238 78.9321 13.5402C79.0959 13.6553 79.3033 13.7124 79.5559 13.7124Z" fill="#202020"/>
<path d="M85.3429 6.83203V14.7326H83.6973V6.83203H85.3429Z" fill="#202020"/>
<path d="M11.092 2.51953C6.49112 2.51953 2.76172 6.24964 2.76172 10.8498C2.76172 15.4507 6.49112 19.1801 11.092 19.1801C15.6922 19.1801 19.4223 15.45 19.4223 10.8498C19.4223 6.24964 15.6922 2.51953 11.092 2.51953ZM9.05125 13.0868C9.05125 13.537 8.68643 13.9011 8.23692 13.9011C7.78671 13.9011 7.42259 13.537 7.42259 13.0868V9.61493C7.42259 9.16472 7.78671 8.79989 8.23692 8.79989C8.68643 8.79989 9.05125 9.16472 9.05125 9.61493V13.0868ZM14.8038 13.0282C14.8038 13.6647 14.4319 13.8926 13.7954 13.8926H10.8669C10.2304 13.8926 9.71457 13.3768 9.71457 12.7403V9.85979C9.71457 9.85979 9.65741 9.38065 10.1881 8.93044C10.488 8.67569 10.9332 8.1895 11.2444 7.59957C11.8626 6.42747 12.2324 6.08593 12.5139 6.17766C13.5569 6.51567 13.0354 8.06177 12.6988 8.70745H13.6514C14.2872 8.70745 14.8038 9.22329 14.8038 9.85979V13.0282Z" fill="#5D5DFF"/>
</svg>
