<svg width="89" height="22" viewBox="0 0 89 22" fill="none" xmlns="http://www.w3.org/2000/svg">
<path d="M23.8145 8.20948V6.83203H30.3037V8.20948H27.8847V14.7326H26.2335V8.20948H23.8145Z" fill="#202020"/>
<path d="M34.0438 14.849C33.4377 14.849 32.9148 14.7248 32.4744 14.4764C32.0341 14.228 31.6954 13.8766 31.4583 13.4207C31.2226 12.9634 31.1055 12.4229 31.1055 11.7977C31.1055 11.188 31.2226 10.6538 31.4583 10.1944C31.6954 9.73364 32.0292 9.37446 32.4603 9.11619C32.8908 8.85863 33.3974 8.72949 33.9789 8.72949C34.4997 8.72949 34.9704 8.84099 35.3902 9.06256C35.8115 9.28273 36.1453 9.61721 36.3923 10.0646C36.6407 10.5106 36.7648 11.0687 36.7648 11.7384V12.19H32.7285V12.1957C32.7285 12.6381 32.8484 12.986 33.0898 13.2401C33.3325 13.4941 33.66 13.6211 34.0721 13.6211C34.3466 13.6211 34.5837 13.564 34.7834 13.4489C34.9845 13.3325 35.1263 13.161 35.2096 12.9352L36.7282 13.0368C36.6131 13.5865 36.3203 14.0262 35.8503 14.355C35.3796 14.6845 34.7777 14.849 34.0438 14.849ZM32.7285 11.1711H35.218C35.2138 10.8197 35.1002 10.5296 34.8765 10.3017C34.6521 10.0724 34.3614 9.95734 34.0043 9.95734C33.6388 9.95734 33.3396 10.0759 33.1067 10.313C32.8731 10.5487 32.7468 10.8345 32.7285 11.1711Z" fill="#202020"/>
<path d="M42.7659 10.4965L41.2614 10.5896C41.2198 10.3998 41.1154 10.2368 40.9481 10.1013C40.7823 9.96439 40.5565 9.89524 40.2707 9.89524C40.0167 9.89524 39.8007 9.94887 39.6243 10.0561C39.4472 10.162 39.3604 10.3038 39.3646 10.4823C39.3604 10.6235 39.4162 10.7434 39.5312 10.8408C39.6455 10.9389 39.8403 11.0172 40.1155 11.0751L41.1881 11.2924C42.3284 11.526 42.8993 12.0602 42.9014 12.8957C42.9014 13.2852 42.7871 13.6268 42.5599 13.9203C42.3319 14.2125 42.0193 14.4397 41.6227 14.6034C41.2276 14.7671 40.7738 14.849 40.2622 14.849C39.4775 14.849 38.8516 14.6852 38.3852 14.3578C37.9202 14.029 37.6492 13.5816 37.5723 13.0171L39.1896 12.9324C39.2404 13.1737 39.359 13.3558 39.5453 13.48C39.733 13.6028 39.9729 13.6635 40.2651 13.6635C40.5544 13.6635 40.7872 13.607 40.9622 13.4941C41.1387 13.3812 41.2283 13.2372 41.2304 13.0622C41.2226 12.7687 40.9693 12.5725 40.4711 12.4723L39.4437 12.2691C38.2977 12.0397 37.7261 11.4752 37.7303 10.5755C37.7282 10.0039 37.9568 9.553 38.4162 9.22345C38.8749 8.89462 39.4839 8.72949 40.2425 8.72949C40.9912 8.72949 41.5811 8.88756 42.0123 9.20369C42.4427 9.51983 42.6939 9.95099 42.7659 10.4965Z" fill="#202020"/>
<path d="M47.0912 8.80846V10.0419H45.9763V12.9126C45.9763 13.1384 46.0271 13.2922 46.1287 13.3727C46.2318 13.4517 46.3665 13.4912 46.5324 13.4912C46.6093 13.4912 46.6862 13.4849 46.7638 13.4714C46.8407 13.4566 46.9 13.4453 46.9416 13.4376L47.1985 14.6598C47.1174 14.6866 47.0016 14.7162 46.8513 14.7501C46.7024 14.7854 46.5218 14.8073 46.3094 14.815C45.711 14.839 45.2311 14.7099 44.8698 14.4255C44.5085 14.1418 44.3293 13.7085 44.3335 13.1271V10.0419H43.5234V8.80846H44.3335V7.38867H45.9763V8.80846H47.0912Z" fill="#202020"/>
<path d="M48.1568 14.733V8.80832H49.8024V14.733H48.1568ZM48.9019 8.04339C48.6606 8.04339 48.4531 7.96153 48.2781 7.79782C48.1031 7.63411 48.0156 7.43864 48.0156 7.21071C48.0156 6.98137 48.1031 6.78591 48.2781 6.62361C48.4531 6.46201 48.6606 6.38086 48.9019 6.38086C49.1461 6.38086 49.3564 6.46201 49.5314 6.62361C49.7064 6.78591 49.7939 6.98137 49.7939 7.21071C49.7939 7.43864 49.7064 7.63411 49.5314 7.79782C49.3564 7.96153 49.1461 8.04339 48.9019 8.04339Z" fill="#202020"/>
<path d="M51.1113 14.7332V8.80853H52.6779V9.8529H52.7485C52.8727 9.50289 53.0787 9.22839 53.3666 9.02869C53.6559 8.8297 54.0003 8.72949 54.3997 8.72949C54.8062 8.72949 55.1512 8.83111 55.4356 9.03434C55.7214 9.23615 55.9126 9.50854 56.0086 9.8529H56.0707C56.1907 9.51418 56.4101 9.24251 56.7284 9.03716C57.0459 8.83252 57.4227 8.72949 57.8574 8.72949C58.4085 8.72949 58.8573 8.90591 59.2038 9.25732C59.5496 9.60733 59.7232 10.1041 59.7232 10.7477V14.7332H58.0832V11.0723C58.0832 10.7434 57.9957 10.4965 57.8207 10.3327C57.6457 10.1676 57.427 10.0844 57.1659 10.0844C56.8667 10.0844 56.6331 10.1796 56.4659 10.3694C56.3 10.56 56.2175 10.8084 56.2175 11.1146V14.7332H54.6227V11.0384C54.6227 10.747 54.5394 10.5155 54.3743 10.344C54.2085 10.1712 53.9904 10.0844 53.7194 10.0844C53.4464 10.0844 53.2177 10.1846 53.0335 10.3836C52.8487 10.5833 52.7569 10.8479 52.7569 11.1767V14.7332H51.1113Z" fill="#202020"/>
<path d="M63.697 14.849C63.0965 14.849 62.5779 14.7212 62.1418 14.4651C61.7071 14.2096 61.3712 13.8519 61.1341 13.3925C60.8984 12.9338 60.7812 12.4003 60.7812 11.792C60.7812 11.1809 60.8984 10.6454 61.1341 10.186C61.3712 9.72729 61.7071 9.36952 62.1418 9.11337C62.5779 8.85792 63.0965 8.72949 63.697 8.72949C64.2954 8.72949 64.8127 8.85792 65.2495 9.11337C65.6856 9.36952 66.0215 9.72729 66.2572 10.186C66.4943 10.6454 66.6128 11.1809 66.6128 11.792C66.6128 12.4003 66.4943 12.9338 66.2572 13.3925C66.0215 13.8519 65.6856 14.2096 65.2495 14.4651C64.8127 14.7212 64.2954 14.849 63.697 14.849ZM63.7055 13.576C64.112 13.576 64.4196 13.4066 64.6285 13.0679C64.8374 12.7278 64.9418 12.2987 64.9418 11.7808C64.9418 11.2656 64.8374 10.8373 64.6285 10.4965C64.4196 10.1542 64.112 9.98274 63.7055 9.98274C63.2913 9.98274 62.978 10.1542 62.7656 10.4965C62.5546 10.8373 62.4494 11.2656 62.4494 11.7808C62.4494 12.2987 62.5546 12.7278 62.7656 13.0679C62.978 13.4066 63.2913 13.576 63.7055 13.576Z" fill="#202020"/>
<path d="M69.3311 11.3066V14.7332H67.6855V8.80853H69.2521V9.8529H69.3227C69.456 9.50854 69.6762 9.23615 69.9832 9.03434C70.2915 8.83111 70.6648 8.72949 71.1038 8.72949C71.7205 8.72949 72.2159 8.92919 72.5885 9.32789C72.9625 9.72518 73.1502 10.2692 73.1502 10.9594V14.7332H71.5074V11.2529C71.5088 10.8902 71.4157 10.6065 71.228 10.4033C71.0395 10.1987 70.7806 10.0956 70.4517 10.0956C70.1201 10.0956 69.8512 10.2022 69.6445 10.4146C69.437 10.6277 69.3326 10.9248 69.3311 11.3066Z" fill="#202020"/>
<path d="M74.438 14.733V8.80832H76.0836V14.733H74.438ZM75.1832 8.04339C74.9418 8.04339 74.7344 7.96153 74.5594 7.79782C74.3844 7.63411 74.2969 7.43864 74.2969 7.21071C74.2969 6.98137 74.3844 6.78591 74.5594 6.62361C74.7344 6.46201 74.9418 6.38086 75.1832 6.38086C75.4273 6.38086 75.6376 6.46201 75.8126 6.62361C75.9876 6.78591 76.0751 6.98137 76.0751 7.21071C76.0751 7.43864 75.9876 7.63411 75.8126 7.79782C75.6376 7.96153 75.4273 8.04339 75.1832 8.04339Z" fill="#202020"/>
<path d="M79.0846 14.8461C78.5179 14.8461 78.0487 14.6987 77.6761 14.403C77.3035 14.1059 77.1172 13.6649 77.1172 13.0792C77.1172 12.6374 77.2202 12.2902 77.4277 12.0376C77.6366 11.7857 77.9103 11.6015 78.2491 11.4844C78.5878 11.3658 78.9526 11.2889 79.3442 11.2529C79.858 11.2021 80.2249 11.1485 80.4451 11.092C80.6666 11.0356 80.7781 10.9114 80.7781 10.7194V10.6969C80.7781 10.4527 80.7005 10.2636 80.5467 10.1295C80.3943 9.99615 80.1776 9.92911 79.8975 9.92911C79.6018 9.92911 79.3668 9.99403 79.1918 10.1239C79.0168 10.2523 78.9011 10.4146 78.8446 10.6122L77.3261 10.488C77.439 9.94816 77.7191 9.51983 78.1672 9.20369C78.6167 8.88756 79.1961 8.72949 79.9059 8.72949C80.3463 8.72949 80.757 8.79935 81.1394 8.93837C81.5233 9.07809 81.8324 9.29543 82.0681 9.5904C82.3031 9.88395 82.4209 10.2664 82.4209 10.7364V14.7332H80.8628V13.9118H80.8177C80.6723 14.1871 80.4564 14.4115 80.1685 14.5865C79.882 14.7593 79.5207 14.8461 79.0846 14.8461ZM79.5559 13.7114C79.9151 13.7114 80.2108 13.607 80.4423 13.3981C80.6737 13.1878 80.7894 12.9267 80.7894 12.6163V11.9868C80.7252 12.0306 80.6257 12.0687 80.4902 12.1025C80.3547 12.1364 80.2108 12.166 80.0584 12.19C79.9059 12.2147 79.7691 12.2352 79.6491 12.2521C79.3612 12.2938 79.1283 12.3749 78.9519 12.4949C78.7748 12.6156 78.6866 12.7913 78.6866 13.0227C78.6866 13.2506 78.7684 13.4228 78.9321 13.5393C79.0959 13.6543 79.3033 13.7114 79.5559 13.7114Z" fill="#202020"/>
<path d="M85.3429 6.83203V14.7326H83.6973V6.83203H85.3429Z" fill="#202020"/>
<path d="M11.092 2.51855C6.49112 2.51855 2.76172 6.24867 2.76172 10.8489C2.76172 15.4497 6.49112 19.1791 11.092 19.1791C15.6922 19.1791 19.4223 15.449 19.4223 10.8489C19.4223 6.24867 15.6922 2.51855 11.092 2.51855ZM9.05125 13.0858C9.05125 13.536 8.68643 13.9001 8.23692 13.9001C7.78671 13.9001 7.42259 13.536 7.42259 13.0858V9.61395C7.42259 9.16374 7.78671 8.79891 8.23692 8.79891C8.68643 8.79891 9.05125 9.16374 9.05125 9.61395V13.0858ZM14.8038 13.0272C14.8038 13.6637 14.4319 13.8917 13.7954 13.8917H10.8669C10.2304 13.8917 9.71457 13.3758 9.71457 12.7393V9.85881C9.71457 9.85881 9.65741 9.37967 10.1881 8.92946C10.488 8.67472 10.9332 8.18852 11.2444 7.59859C11.8626 6.42649 12.2324 6.08495 12.5139 6.17669C13.5569 6.5147 13.0354 8.0608 12.6988 8.70647H13.6514C14.2872 8.70647 14.8038 9.22231 14.8038 9.85881V13.0272Z" fill="#5D5DFF"/>
</svg>
