<svg width="24" height="24" viewBox="0 0 24 24" fill="none" xmlns="http://www.w3.org/2000/svg">
<g clip-path="url(#clip0_263_13877)">
<path fill-rule="evenodd" clip-rule="evenodd" d="M21.75 12C21.75 14.5859 20.7228 17.0658 18.8943 18.8943C17.0658 20.7228 14.5859 21.75 12 21.75C9.41414 21.75 6.93419 20.7228 5.10571 18.8943C3.27723 17.0658 2.25 14.5859 2.25 12C2.25 9.41414 3.27723 6.93419 5.10571 5.10571C6.93419 3.27723 9.41414 2.25 12 2.25C14.5859 2.25 17.0658 3.27723 18.8943 5.10571C20.7228 6.93419 21.75 9.41414 21.75 12ZM24 12C24 15.1826 22.7357 18.2348 20.4853 20.4853C18.2348 22.7357 15.1826 24 12 24C8.8174 24 5.76516 22.7357 3.51472 20.4853C1.26428 18.2348 0 15.1826 0 12C0 8.8174 1.26428 5.76516 3.51472 3.51472C5.76516 1.26428 8.8174 0 12 0C15.1826 0 18.2348 1.26428 20.4853 3.51472C22.7357 5.76516 24 8.8174 24 12ZM13.032 4.803C12.9447 4.60184 12.8005 4.43057 12.6172 4.31028C12.4338 4.18998 12.2193 4.12589 12 4.12589C11.7807 4.12589 11.5662 4.18998 11.3828 4.31028C11.1995 4.43057 11.0553 4.60184 10.968 4.803L9.399 8.4195L5.4735 8.7945C5.25511 8.81533 5.04758 8.89955 4.87645 9.03681C4.70531 9.17406 4.57804 9.35836 4.51029 9.56701C4.44255 9.77567 4.43729 9.99958 4.49516 10.2112C4.55302 10.4228 4.6715 10.6129 4.836 10.758L7.791 13.368L6.9345 17.2155C6.88649 17.4296 6.90216 17.6532 6.97959 17.8585C7.05701 18.0639 7.19281 18.2421 7.37026 18.3712C7.54771 18.5004 7.75906 18.5748 7.97827 18.5853C8.19748 18.5959 8.41499 18.542 8.604 18.4305L12 16.425L15.396 18.429C15.5849 18.5404 15.8022 18.5941 16.0212 18.5836C16.2403 18.5731 16.4514 18.4988 16.6288 18.3699C16.8062 18.241 16.942 18.063 17.0196 17.8579C17.0972 17.6528 17.1131 17.4295 17.0655 17.2155L16.209 13.368L19.164 10.758C19.329 10.613 19.4479 10.4228 19.5061 10.2109C19.5642 9.99909 19.5591 9.77486 19.4913 9.5659C19.4235 9.35693 19.296 9.17239 19.1246 9.03505C18.9531 8.8977 18.7452 8.81356 18.5265 8.793L14.601 8.4195L13.032 4.803ZM11.199 9.924L12 8.079L12.801 9.924C12.8809 10.1088 13.0089 10.2688 13.1717 10.3873C13.3345 10.5057 13.5261 10.5783 13.7265 10.5975L15.7305 10.788L14.2215 12.12C14.0704 12.2532 13.9578 12.4245 13.8956 12.6161C13.8333 12.8077 13.8236 13.0124 13.8675 13.209L14.3055 15.174L12.5715 14.1495C12.3984 14.0474 12.201 13.9935 12 13.9935C11.799 13.9935 11.6016 14.0474 11.4285 14.1495L9.6945 15.1725L10.1325 13.2075C10.1761 13.0111 10.1663 12.8067 10.104 12.6154C10.0417 12.4241 9.92934 12.2531 9.7785 12.12L8.2695 10.788L10.2735 10.5975C10.4739 10.5783 10.6655 10.5057 10.8283 10.3873C10.9911 10.2688 11.1191 10.1088 11.199 9.924Z" fill="#6C757D"/>
</g>
<defs>
<clipPath id="clip0_263_13877">
<rect width="24" height="24" fill="white"/>
</clipPath>
</defs>
</svg>
