<svg width="32" height="32" viewBox="0 0 32 32" fill="none" xmlns="http://www.w3.org/2000/svg">
<path d="M12.5 27C12.5 27.4945 12.3534 27.9778 12.0787 28.3889C11.804 28.8001 11.4135 29.1205 10.9567 29.3097C10.4999 29.4989 9.99723 29.5484 9.51227 29.452C9.02732 29.3555 8.58186 29.1174 8.23223 28.7678C7.8826 28.4181 7.6445 27.9727 7.54804 27.4877C7.45157 27.0028 7.50108 26.5001 7.6903 26.0433C7.87952 25.5865 8.19995 25.196 8.61107 24.9213C9.0222 24.6466 9.50555 24.5 10 24.5C10.663 24.5 11.2989 24.7634 11.7678 25.2322C12.2366 25.7011 12.5 26.337 12.5 27ZM23 24.5C22.5055 24.5 22.0222 24.6466 21.6111 24.9213C21.2 25.196 20.8795 25.5865 20.6903 26.0433C20.5011 26.5001 20.4516 27.0028 20.548 27.4877C20.6445 27.9727 20.8826 28.4181 21.2322 28.7678C21.5819 29.1174 22.0273 29.3555 22.5123 29.452C22.9972 29.5484 23.4999 29.4989 23.9567 29.3097C24.4135 29.1205 24.804 28.8001 25.0787 28.3889C25.3534 27.9778 25.5 27.4945 25.5 27C25.5 26.337 25.2366 25.7011 24.7678 25.2322C24.2989 24.7634 23.663 24.5 23 24.5ZM29.4337 9.44125L26.0225 20.5288C25.8047 21.2458 25.3615 21.8735 24.7587 22.3187C24.1559 22.7638 23.4256 23.0028 22.6762 23H10.3662C9.60613 22.9975 8.86728 22.7488 8.2604 22.2911C7.65353 21.8334 7.21131 21.1914 7 20.4613L2.72625 5.5H1.5C1.10218 5.5 0.720644 5.34197 0.43934 5.06066C0.158035 4.77936 0 4.39783 0 4C0 3.60218 0.158035 3.22064 0.43934 2.93934C0.720644 2.65804 1.10218 2.5 1.5 2.5H3.1025C3.64543 2.50168 4.17318 2.67935 4.60657 3.00637C5.03997 3.33339 5.35565 3.79212 5.50625 4.31375L6.4175 7.5H28C28.2348 7.49998 28.4662 7.55506 28.6758 7.66081C28.8854 7.76656 29.0672 7.92002 29.2067 8.10885C29.3462 8.29768 29.4394 8.51661 29.4788 8.74803C29.5182 8.97945 29.5028 9.21689 29.4337 9.44125ZM25.9687 10.5H7.27375L9.885 19.6375C9.9149 19.742 9.97805 19.834 10.0649 19.8994C10.1517 19.9648 10.2575 20.0001 10.3662 20H22.6762C22.7833 20.0002 22.8875 19.9661 22.9737 19.9026C23.0599 19.8392 23.1234 19.7498 23.155 19.6475L25.9687 10.5Z" fill="white"/>
</svg>
