<svg width="32" height="32" viewBox="0 0 32 32" fill="none" xmlns="http://www.w3.org/2000/svg">
<path d="M15.0006 7.15612L16.0011 8.05219L17.0018 7.15637C18.2395 6.04842 19.8546 5.45661 21.5151 5.50254C23.1756 5.54848 24.7554 6.22867 25.93 7.40335L25.9301 7.40349C27.1037 8.57694 27.784 10.1549 27.8316 11.8138C27.8787 13.4594 27.2998 15.061 26.2124 16.2957L15.9988 26.5238L5.78749 16.2956C4.69875 15.0602 4.11914 13.4571 4.16678 11.8101C4.21481 10.1498 4.89661 8.5709 6.07221 7.39752C7.24781 6.22413 8.82801 5.54532 10.4884 5.50042C12.1488 5.45553 13.7633 6.04797 15.0006 7.15612Z" stroke="white" stroke-width="3"/>
</svg>
