<svg width="32" height="32" viewBox="0 0 32 32" fill="none" xmlns="http://www.w3.org/2000/svg">
<path d="M24 21.3307C22.9493 21.3307 22.0013 21.7441 21.288 22.4067L11.88 16.9307C11.9467 16.6241 12 16.3174 12 15.9974C12 15.6774 11.9467 15.3707 11.88 15.0641L21.28 9.58406C22 10.2507 22.9467 10.6641 24 10.6641C26.2133 10.6641 28 8.8774 28 6.66406C28 4.45073 26.2133 2.66406 24 2.66406C21.7867 2.66406 20 4.45073 20 6.66406C20 6.98406 20.0533 7.29073 20.12 7.5974L10.72 13.0774C10 12.4107 9.05333 11.9974 8 11.9974C5.78667 11.9974 4 13.7841 4 15.9974C4 18.2107 5.78667 19.9974 8 19.9974C9.05333 19.9974 10 19.5841 10.72 18.9174L20.1173 24.4081C20.0422 24.71 20.0029 25.0196 20 25.3307C20 26.1219 20.2346 26.8952 20.6741 27.553C21.1136 28.2108 21.7384 28.7235 22.4693 29.0262C23.2002 29.329 24.0044 29.4082 24.7804 29.2539C25.5563 29.0995 26.269 28.7186 26.8284 28.1592C27.3878 27.5997 27.7688 26.887 27.9231 26.1111C28.0775 25.3352 27.9983 24.5309 27.6955 23.8C27.3928 23.0691 26.8801 22.4444 26.2223 22.0048C25.5645 21.5653 24.7911 21.3307 24 21.3307Z" fill="#373F6B"/>
</svg>
