<svg width="32" height="32" viewBox="0 0 32 32" fill="none" xmlns="http://www.w3.org/2000/svg">
<path d="M24 21.3346C22.9493 21.3346 22.0013 21.748 21.288 22.4106L11.88 16.9346C11.9467 16.628 12 16.3213 12 16.0013C12 15.6813 11.9467 15.3746 11.88 15.068L21.28 9.58797C22 10.2546 22.9467 10.668 24 10.668C26.2133 10.668 28 8.8813 28 6.66797C28 4.45464 26.2133 2.66797 24 2.66797C21.7867 2.66797 20 4.45464 20 6.66797C20 6.98797 20.0533 7.29463 20.12 7.6013L10.72 13.0813C10 12.4146 9.05333 12.0013 8 12.0013C5.78667 12.0013 4 13.788 4 16.0013C4 18.2146 5.78667 20.0013 8 20.0013C9.05333 20.0013 10 19.588 10.72 18.9213L20.1173 24.412C20.0422 24.7139 20.0029 25.0235 20 25.3346C20 26.1258 20.2346 26.8991 20.6741 27.5569C21.1136 28.2147 21.7384 28.7274 22.4693 29.0302C23.2002 29.3329 24.0044 29.4121 24.7804 29.2578C25.5563 29.1034 26.269 28.7225 26.8284 28.1631C27.3878 27.6037 27.7688 26.8909 27.9231 26.115C28.0775 25.3391 27.9983 24.5348 27.6955 23.8039C27.3928 23.073 26.8801 22.4483 26.2223 22.0088C25.5645 21.5692 24.7911 21.3346 24 21.3346Z" fill="#373F6B"/>
</svg>
