<svg width="32" height="32" viewBox="0 0 32 32" fill="none" xmlns="http://www.w3.org/2000/svg">
<path d="M4 18.667V13.3337C4 8.30566 4 5.79099 5.56267 4.22966C7.124 2.66699 9.63867 2.66699 14.6667 2.66699H17.3333C22.3613 2.66699 24.876 2.66699 26.4373 4.22966C27.3093 5.10033 27.6947 6.26699 27.864 8.00033M28 13.3337V18.667C28 23.695 28 26.2097 26.4373 27.771C24.876 29.3337 22.3613 29.3337 17.3333 29.3337H14.6667C9.63867 29.3337 7.124 29.3337 5.56267 27.771C4.69067 26.9003 4.30533 25.7337 4.136 24.0003M10.6667 18.667H17.3333M10.6667 13.3337H12M21.3333 13.3337H16" stroke="black" stroke-width="2" stroke-linecap="round"/>
</svg>
