<svg width="22" height="22" viewBox="0 0 22 22" fill="none" xmlns="http://www.w3.org/2000/svg">
<path d="M10.224 2.78435C10.4417 2.11421 11.3898 2.11421 11.6075 2.78435L13.0387 7.18917C13.1361 7.48887 13.4154 7.69178 13.7305 7.69178H18.362C19.0667 7.69178 19.3596 8.59345 18.7896 9.00763L15.0426 11.73C14.7877 11.9152 14.681 12.2435 14.7784 12.5432L16.2096 16.948C16.4273 17.6182 15.6603 18.1754 15.0903 17.7612L11.3433 15.0389C11.0884 14.8537 10.7431 14.8537 10.4882 15.0389L6.74124 17.7612C6.17119 18.1754 5.40418 17.6182 5.62192 16.948L7.05313 12.5432C7.15051 12.2435 7.04383 11.9152 6.7889 11.73L3.04193 9.00763C2.47188 8.59345 2.76485 7.69178 3.46948 7.69178H8.10098C8.4161 7.69178 8.69538 7.48887 8.79276 7.18917L10.224 2.78435Z" fill="#FDAF48"/>
</svg>
