<svg width="21" height="22" viewBox="0 0 21 22" fill="none" xmlns="http://www.w3.org/2000/svg">
<path d="M9.95835 2.78435C10.1761 2.11421 11.1242 2.11421 11.3419 2.78435L12.7731 7.18917C12.8705 7.48887 13.1498 7.69178 13.4649 7.69178H18.0964C18.801 7.69178 19.094 8.59345 18.5239 9.00763L14.777 11.73C14.522 11.9152 14.4154 12.2435 14.5127 12.5432L15.944 16.948C16.1617 17.6182 15.3947 18.1754 14.8246 17.7612L11.0777 15.0389C10.8227 14.8537 10.4775 14.8537 10.2226 15.0389L6.47562 17.7612C5.90556 18.1754 5.13855 17.6182 5.3563 16.948L6.78751 12.5432C6.88489 12.2435 6.77821 11.9152 6.52327 11.73L2.77631 9.00763C2.20625 8.59345 2.49922 7.69178 3.20385 7.69178H7.83535C8.15047 7.69178 8.42976 7.48887 8.52713 7.18917L9.95835 2.78435Z" fill="#FDAF48"/>
</svg>
