<svg width="21" height="22" viewBox="0 0 21 22" fill="none" xmlns="http://www.w3.org/2000/svg">
<path d="M9.85874 2.78435C10.0765 2.11421 11.0246 2.11421 11.2423 2.78435L12.6735 7.18917C12.7709 7.48887 13.0502 7.69178 13.3653 7.69178H17.9968C18.7014 7.69178 18.9944 8.59345 18.4243 9.00763L14.6774 11.73C14.4224 11.9152 14.3158 12.2435 14.4131 12.5432L15.8443 16.948C16.0621 17.6182 15.2951 18.1754 14.725 17.7612L10.9781 15.0389C10.7231 14.8537 10.3779 14.8537 10.123 15.0389L6.37601 17.7612C5.80595 18.1754 5.03894 17.6182 5.25669 16.948L6.6879 12.5432C6.78528 12.2435 6.6786 11.9152 6.42366 11.73L2.6767 9.00763C2.10664 8.59345 2.39961 7.69178 3.10424 7.69178H7.73574C8.05086 7.69178 8.33015 7.48887 8.42752 7.18917L9.85874 2.78435Z" fill="#FDAF48"/>
</svg>
