<svg width="21" height="22" viewBox="0 0 21 22" fill="none" xmlns="http://www.w3.org/2000/svg">
<path d="M9.49155 2.78435C9.70929 2.11421 10.6574 2.11421 10.8751 2.78435L12.3063 7.18917C12.4037 7.48887 12.683 7.69178 12.9981 7.69178H17.6296C18.3342 7.69178 18.6272 8.59345 18.0571 9.00763L14.3102 11.73C14.0552 11.9152 13.9486 12.2435 14.0459 12.5432L15.4772 16.948C15.6949 17.6182 14.9279 18.1754 14.3578 17.7612L10.6109 15.0389C10.3559 14.8537 10.0107 14.8537 9.75579 15.0389L6.00882 17.7612C5.43876 18.1754 4.67176 17.6182 4.8895 16.948L6.32071 12.5432C6.41809 12.2435 6.31141 11.9152 6.05647 11.73L2.30951 9.00763C1.73945 8.59345 2.03242 7.69178 2.73706 7.69178H7.36856C7.68368 7.69178 7.96296 7.48887 8.06034 7.18917L9.49155 2.78435Z" fill="#FDAF48"/>
</svg>
