<svg width="21" height="22" viewBox="0 0 21 22" fill="none" xmlns="http://www.w3.org/2000/svg">
<path d="M9.59116 2.78435C9.8089 2.11421 10.757 2.11421 10.9747 2.78435L12.4059 7.18917C12.5033 7.48887 12.7826 7.69178 13.0977 7.69178H17.7292C18.4338 7.69178 18.7268 8.59345 18.1568 9.00763L14.4098 11.73C14.1549 11.9152 14.0482 12.2435 14.1456 12.5432L15.5768 16.948C15.7945 17.6182 15.0275 18.1754 14.4574 17.7612L10.7105 15.0389C10.4555 14.8537 10.1103 14.8537 9.8554 15.0389L6.10843 17.7612C5.53837 18.1754 4.77137 17.6182 4.98911 16.948L6.42032 12.5432C6.5177 12.2435 6.41102 11.9152 6.15608 11.73L2.40912 9.00763C1.83906 8.59345 2.13203 7.69178 2.83666 7.69178H7.46817C7.78329 7.69178 8.06257 7.48887 8.15995 7.18917L9.59116 2.78435Z" fill="#FDAF48"/>
</svg>
