<svg width="6" height="6" viewBox="0 0 6 6" fill="none" xmlns="http://www.w3.org/2000/svg">
<path fill-rule="evenodd" clip-rule="evenodd" d="M0.184162 0.184162C-0.0613873 0.429711 -0.0613873 0.827825 0.184162 1.07337L2.11079 3L0.184162 4.92663C-0.0613873 5.17217 -0.0613873 5.57029 0.184162 5.81584C0.429711 6.06139 0.827825 6.06139 1.07337 5.81584L3 3.88921L4.92663 5.81584C5.17217 6.06139 5.57029 6.06139 5.81584 5.81584C6.06139 5.57029 6.06139 5.17217 5.81584 4.92663L3.88921 3L5.81584 1.07337C6.06139 0.827825 6.06139 0.429711 5.81584 0.184162C5.57029 -0.0613873 5.17217 -0.0613873 4.92663 0.184162L3 2.11079L1.07337 0.184162C0.827825 -0.0613873 0.429711 -0.0613873 0.184162 0.184162Z" fill="white"/>
</svg>
