<svg width="20" height="20" viewBox="0 0 20 20" fill="none" xmlns="http://www.w3.org/2000/svg">
<path d="M4.01 14.1362L2.141 2.00017H1C0.734784 2.00017 0.48043 1.89481 0.292893 1.70728C0.105357 1.51974 0 1.26539 0 1.00017C0 0.734953 0.105357 0.480599 0.292893 0.293063C0.48043 0.105526 0.734784 0.000169328 1 0.000169328H2.985C3.22624 -0.00428441 3.46086 0.0792519 3.645 0.235169C3.834 0.394106 3.9573 0.617531 3.991 0.862169L4.319 3.00017H12V5.00017H4.627L5.857 13.0002H15.256L16.756 8.00017H18.844L16.958 14.2872C16.8963 14.4933 16.7697 14.6739 16.5971 14.8024C16.4245 14.9308 16.2151 15.0002 16 15.0002H5.016C4.76792 15.0047 4.52711 14.9163 4.341 14.7522C4.15961 14.5936 4.04169 14.3748 4.009 14.1362H4.01ZM8 18.0002C8 18.5306 7.78929 19.0393 7.41421 19.4144C7.03914 19.7895 6.53043 20.0002 6 20.0002C5.46957 20.0002 4.96086 19.7895 4.58579 19.4144C4.21071 19.0393 4 18.5306 4 18.0002C4 17.4697 4.21071 16.961 4.58579 16.586C4.96086 16.2109 5.46957 16.0002 6 16.0002C6.53043 16.0002 7.03914 16.2109 7.41421 16.586C7.78929 16.961 8 17.4697 8 18.0002ZM17 18.0002C17 18.5306 16.7893 19.0393 16.4142 19.4144C16.0391 19.7895 15.5304 20.0002 15 20.0002C14.4696 20.0002 13.9609 19.7895 13.5858 19.4144C13.2107 19.0393 13 18.5306 13 18.0002C13 17.4697 13.2107 16.961 13.5858 16.586C13.9609 16.2109 14.4696 16.0002 15 16.0002C15.5304 16.0002 16.0391 16.2109 16.4142 16.586C16.7893 16.961 17 17.4697 17 18.0002ZM17 0.000169328C17.2652 0.000169328 17.5196 0.105526 17.7071 0.293063C17.8946 0.480599 18 0.734953 18 1.00017V2.00017H19C19.2652 2.00017 19.5196 2.10553 19.7071 2.29306C19.8946 2.4806 20 2.73495 20 3.00017C20 3.26539 19.8946 3.51974 19.7071 3.70728C19.5196 3.89481 19.2652 4.00017 19 4.00017H18V5.00017C18 5.26539 17.8946 5.51974 17.7071 5.70728C17.5196 5.89481 17.2652 6.00017 17 6.00017C16.7348 6.00017 16.4804 5.89481 16.2929 5.70728C16.1054 5.51974 16 5.26539 16 5.00017V4.00017H15C14.7348 4.00017 14.4804 3.89481 14.2929 3.70728C14.1054 3.51974 14 3.26539 14 3.00017C14 2.73495 14.1054 2.4806 14.2929 2.29306C14.4804 2.10553 14.7348 2.00017 15 2.00017H16V1.00017C16 0.734953 16.1054 0.480599 16.2929 0.293063C16.4804 0.105526 16.7348 0.000169328 17 0.000169328Z" fill="white"/>
</svg>
