<svg width="16" height="12" viewBox="0 0 16 12" fill="none" xmlns="http://www.w3.org/2000/svg">
<path d="M8 0.667969C4.36364 0.667969 1.25818 2.92979 0 6.12251C1.25818 9.31524 4.36364 11.5771 8 11.5771C11.6364 11.5771 14.7418 9.31524 16 6.12251C14.7418 2.92979 11.6364 0.667969 8 0.667969ZM8 9.75888C5.99273 9.75888 4.36364 8.12979 4.36364 6.12251C4.36364 4.11524 5.99273 2.48615 8 2.48615C10.0073 2.48615 11.6364 4.11524 11.6364 6.12251C11.6364 8.12979 10.0073 9.75888 8 9.75888ZM8 3.9407C6.79273 3.9407 5.81818 4.91524 5.81818 6.12251C5.81818 7.32979 6.79273 8.30433 8 8.30433C9.20727 8.30433 10.1818 7.32979 10.1818 6.12251C10.1818 4.91524 9.20727 3.9407 8 3.9407Z" fill="#808080"/>
</svg>
