<svg width="32" height="32" viewBox="0 0 32 32" fill="none" xmlns="http://www.w3.org/2000/svg">
<path d="M15.3342 6.78366L16.0012 7.38104L16.6683 6.78383C18.0013 5.59062 19.7406 4.95326 21.5289 5.00273C23.3172 5.0522 25.0186 5.78474 26.2836 7.04982L26.2836 7.04991C27.5475 8.31363 28.2802 10.0129 28.3314 11.7995C28.3823 13.577 27.7549 15.3068 26.5771 16.6381L15.9988 27.2315L5.42286 16.6381C4.2436 15.306 3.61553 13.5746 3.66699 11.7956C3.71871 10.0076 4.45296 8.30727 5.71899 7.04363C6.98503 5.77999 8.68678 5.04895 10.4749 5.00061C12.263 4.95226 14.0017 5.59028 15.3342 6.78366Z" stroke="#373F6B" stroke-width="2"/>
</svg>
